<?xml version="1.0" encoding="UTF-8"?><svg id="Layer_1" xmlns="http://www.w3.org/2000/svg" xmlns:xlink="http://www.w3.org/1999/xlink" viewBox="0 0 1720.0308 1329.5054"><defs><style>.cls-1{fill:url(#linear-gradient-2);}.cls-2{fill:url(#linear-gradient-4);}.cls-3{fill:url(#linear-gradient-3);}.cls-4{fill:url(#linear-gradient-5);}.cls-5{fill:url(#linear-gradient);}</style><linearGradient id="linear-gradient" x1="0" y1="639.4441" x2="1570.373" y2="639.4441" gradientUnits="userSpaceOnUse"><stop offset=".2179" stop-color="#216580"/><stop offset="1" stop-color="#000"/></linearGradient><linearGradient id="linear-gradient-2" x1="905.3206" y1="285.8266" x2="1720.0308" y2="285.8266" gradientUnits="userSpaceOnUse"><stop offset=".3352" stop-color="#004a70"/><stop offset="1" stop-color="#000"/></linearGradient><linearGradient id="linear-gradient-3" x1="705.0883" y1="1329.5054" x2="705.0883" y2="1214.6695" gradientUnits="userSpaceOnUse"><stop offset="0" stop-color="#00a79d"/><stop offset="1" stop-color="#000"/></linearGradient><linearGradient id="linear-gradient-4" x1="1119.3998" y1="1329.5054" x2="1119.3998" y2="984.0449" xlink:href="#linear-gradient-3"/><linearGradient id="linear-gradient-5" x1="1446.0597" y1="1329.5054" x2="1446.0597" y2="598.6331" xlink:href="#linear-gradient-3"/></defs><path class="cls-5" d="M750.1329,44.7886C440.8253,178.7604,240.6154,412.6649,251.8106,639.444c1.1779,23.8607,7.3416,148.7178,98.703,241.1235,140.7239,142.3324,377.4292,100.3079,474.7145,83.036,438.4317-77.8388,685.3257-501.46,745.145-610.9666-23.0047,133.9638-85.9245,367.0459-278.5853,561.556-262.641,265.1618-742.1856,434.2023-1060.3444,228.016-29.2275-18.9411-198.3119-128.5181-227.1736-314.9096C-38.8942,548.543,247.7198,202.2725,750.1329,44.7886Z"/><path class="cls-1" d="M1720.0308,490.4849c-19.4664-73.1076-37.1848-160.7189-46.4555-260.4937-7.9362-85.4131-8.1133-162.8645-4.55-229.9912-92.7809,94.8023-217.0053,205.2775-376.3732,310.2736-141.0721,92.9423-274.5538,158.4481-387.3315,204.896,88.8455,55.9041,156.5276,59.5037,197.6796,55.1759,93.2862-9.8106,143.8456-70.2023,374.3806-271.5352,53.212-46.4716,96.752-83.6313,123.4594-106.2939,39.7302,99.3228,79.4604,198.6456,119.1906,297.9684Z"/><path class="cls-3" d="M504.856,1275.4538v54.0516h400.4645v-114.8359c-51.9642,19.9303-119.5636,40.6046-200.2323,52.559-77.7195,11.5174-146.0447,11.7508-200.2322,8.2253Z"/><path class="cls-2" d="M951.3697,1204.9516v124.5538h336.0602v-345.4605c-44.9118,40.8285-100.6642,85.7387-168.0301,129.2539-60.136,38.845-117.298,68.6795-168.0301,91.6528Z"/><path class="cls-4" d="M1339.1315,1329.5054v-377.5782c37.7639-40.1542,81.1994-93.0593,122.2037-159.8049,44.0291-71.6692,72.7008-138.8602,91.6528-193.4892v730.8723h-213.8565Z"/></svg>